<?xml version="1.0" encoding="UTF-8"?>
<!DOCTYPE svg PUBLIC "-//W3C//DTD SVG 1.1//EN" "http://www.w3.org/Graphics/SVG/1.1/DTD/svg11.dtd">
<svg xmlns="http://www.w3.org/2000/svg" version="1.1" width="50px" height="50px" style="shape-rendering:geometricPrecision; text-rendering:geometricPrecision; image-rendering:optimizeQuality; fill-rule:evenodd; clip-rule:evenodd" xmlns:xlink="http://www.w3.org/1999/xlink">
<g><path style="opacity:0.653" fill="#f39d18" d="M 41.5,10.5 C 41.5,11.8333 40.8333,12.5 39.5,12.5C 38.1851,11.5244 36.8518,10.5244 35.5,9.5C 34.5,10 33.5,10.5 32.5,11C 28.6251,15.0432 24.6251,18.8765 20.5,22.5C 22.5,25.1667 24.8333,27.5 27.5,29.5C 31.2169,25.454 34.8835,21.454 38.5,17.5C 39.1098,18.391 39.4431,19.391 39.5,20.5C 34.7099,26.461 29.7099,32.2944 24.5,38C 22.9651,38.4962 21.4651,38.3295 20,37.5C 17.2775,39.6939 14.2775,41.3606 11,42.5C 8.88858,42.2994 7.05525,41.6327 5.5,40.5C 5.83333,39.8333 6.16667,39.1667 6.5,38.5C 8.40809,35.6304 10.4081,32.7971 12.5,30C 11.4238,28.2739 11.2571,26.4406 12,24.5C 19.6886,17.9771 27.5219,11.6438 35.5,5.5C 38.1292,6.46669 40.1292,8.13336 41.5,10.5 Z M 16.5,24.5 C 19.3347,27.1653 22.3347,29.6653 25.5,32C 23.9448,34.4654 21.9448,34.9654 19.5,33.5C 18.1861,34.3128 17.0195,35.3128 16,36.5C 15.1667,35.6667 14.3333,34.8333 13.5,34C 15.6483,31.9251 15.9817,29.5918 14.5,27C 15.3805,26.2917 16.0472,25.4584 16.5,24.5 Z M 10.5,37.5 C 13.0009,37.5109 13.1676,38.1776 11,39.5C 10.5357,38.9056 10.369,38.2389 10.5,37.5 Z"/></g>
<g><path style="opacity:0.535" fill="#f8b04e" d="M 41.5,10.5 C 44.3331,14.3403 43.6665,17.6736 39.5,20.5C 39.4431,19.391 39.1098,18.391 38.5,17.5C 40.4011,16.065 40.7345,14.3983 39.5,12.5C 40.8333,12.5 41.5,11.8333 41.5,10.5 Z"/></g>
<g><path style="opacity:0.082" fill="#fde3be" d="M 6.5,38.5 C 6.16667,39.1667 5.83333,39.8333 5.5,40.5C 4.24258,39.3774 4.57591,38.7107 6.5,38.5 Z"/></g>
</svg>
