<?xml version="1.0" encoding="UTF-8"?>
<!DOCTYPE svg PUBLIC "-//W3C//DTD SVG 1.1//EN" "http://www.w3.org/Graphics/SVG/1.1/DTD/svg11.dtd">
<svg xmlns="http://www.w3.org/2000/svg" version="1.1" width="50px" height="50px" style="shape-rendering:geometricPrecision; text-rendering:geometricPrecision; image-rendering:optimizeQuality; fill-rule:evenodd; clip-rule:evenodd" xmlns:xlink="http://www.w3.org/1999/xlink">
<g><path style="opacity:0.67" fill="#372cfc" d="M 20.5,3.5 C 38.0861,4.00334 45.9194,13.0033 44,30.5C 37.0334,44.3778 26.5334,47.8778 12.5,41C 1.03201,30.3306 0.69868,19.3306 11.5,8C 14.5919,6.45406 17.5919,4.95406 20.5,3.5 Z M 19.5,7.5 C 32.0867,6.4243 39.42,12.091 41.5,24.5C 37.9065,39.542 28.9065,44.042 14.5,38C 5.63407,29.2868 5.30074,20.2868 13.5,11C 15.7274,10.059 17.7274,8.89232 19.5,7.5 Z"/></g>
<g><path style="opacity:0.673" fill="#181cfc" d="M 20.5,12.5 C 25.1694,11.6997 29.0027,13.033 32,16.5C 33.4713,21.3708 31.8046,24.7042 27,26.5C 26.5172,27.448 26.3505,28.448 26.5,29.5C 25.1667,29.5 23.8333,29.5 22.5,29.5C 22.3398,27.8008 22.5065,26.1341 23,24.5C 25.1584,23.1741 26.9918,21.5075 28.5,19.5C 27.7303,17.7282 26.3969,16.7282 24.5,16.5C 22.0327,17.4213 19.6994,18.2547 17.5,19C 16.4829,17.9505 16.3162,16.7839 17,15.5C 18.1451,14.3636 19.3117,13.3636 20.5,12.5 Z"/></g>
<g><path style="opacity:0.557" fill="#181cfc" d="M 22.5,30.5 C 26.1378,29.7366 27.6378,31.0699 27,34.5C 22.4155,36.4126 20.9155,35.0793 22.5,30.5 Z"/></g>
</svg>
