<?xml version="1.0" encoding="UTF-8"?>
<!DOCTYPE svg PUBLIC "-//W3C//DTD SVG 1.1//EN" "http://www.w3.org/Graphics/SVG/1.1/DTD/svg11.dtd">
<svg xmlns="http://www.w3.org/2000/svg" version="1.1" width="50px" height="50px" style="shape-rendering:geometricPrecision; text-rendering:geometricPrecision; image-rendering:optimizeQuality; fill-rule:evenodd; clip-rule:evenodd" xmlns:xlink="http://www.w3.org/1999/xlink">
<g><path style="opacity:0.911" fill="#b6d047" d="M 22.5,1.5 C 29.9617,4.48133 37.1283,8.148 44,12.5C 44.6667,20.5 44.6667,28.5 44,36.5C 37.6048,40.405 31.1048,44.0717 24.5,47.5C 17.6321,44.4828 11.1321,40.8161 5,36.5C 3.90277,32.6156 3.40277,28.6156 3.5,24.5C 3.40277,20.3844 3.90277,16.3844 5,12.5C 10.8134,8.68348 16.6467,5.01682 22.5,1.5 Z M 25.5,21.5 C 24.1667,21.5 22.8333,21.5 21.5,21.5C 21.6633,23.8568 21.4966,26.1902 21,28.5C 20.5026,25.854 20.3359,23.1873 20.5,20.5C 22.4147,20.2155 24.0813,20.5489 25.5,21.5 Z M 25.5,25.5 C 25.5,26.1667 25.5,26.8333 25.5,27.5C 23.0673,26.4523 23.0673,25.7856 25.5,25.5 Z"/></g>
</svg>
