<?xml version="1.0" encoding="UTF-8"?>
<!DOCTYPE svg PUBLIC "-//W3C//DTD SVG 1.1//EN" "http://www.w3.org/Graphics/SVG/1.1/DTD/svg11.dtd">
<svg xmlns="http://www.w3.org/2000/svg" version="1.1" width="50px" height="50px" style="shape-rendering:geometricPrecision; text-rendering:geometricPrecision; image-rendering:optimizeQuality; fill-rule:evenodd; clip-rule:evenodd" xmlns:xlink="http://www.w3.org/1999/xlink">
<g><path style="opacity:0.649" fill="#dc3830" d="M 28.5,3.5 C 32.79,2.98738 36.6233,3.98738 40,6.5C 42.3891,12.7762 43.8891,19.2762 44.5,26C 44.6464,28.0342 43.9797,29.7009 42.5,31C 39.8103,31.7709 37.1436,32.6042 34.5,33.5C 36.8222,39.1816 35.1555,42.8482 29.5,44.5C 27.626,44.6102 26.126,43.9436 25,42.5C 24.4888,40.1218 23.8221,37.7885 23,35.5C 20.9565,33.792 19.2899,31.792 18,29.5C 17.5,30.6667 16.6667,31.5 15.5,32C 4.65947,34.6578 0.659469,30.4912 3.5,19.5C 3.66667,15.8333 3.83333,12.1667 4,8.5C 4.5,8 5,7.5 5.5,7C 13.5157,7.13374 21.1824,5.96708 28.5,3.5 Z M 26.5,7.5 C 30.1064,7.21083 33.6064,7.54416 37,8.5C 38.2253,12.3137 39.392,16.147 40.5,20C 39.2609,22.2131 39.5943,24.2131 41.5,26C 41.3552,26.772 41.0219,27.4387 40.5,28C 36.8484,28.4986 33.1817,28.6653 29.5,28.5C 29.8635,31.5627 30.5302,34.5627 31.5,37.5C 31.3038,39.2861 30.4705,40.6195 29,41.5C 27.289,34.7945 23.6224,29.4612 18,25.5C 17.5007,20.5111 17.3341,15.5111 17.5,10.5C 20.7846,10.0719 23.7846,9.07191 26.5,7.5 Z M 7.5,9.5 C 9.5,9.5 11.5,9.5 13.5,9.5C 13.6659,14.5111 13.4993,19.5111 13,24.5C 11.6439,23.6198 10.1439,23.2865 8.5,23.5C 8.5,24.8333 8.5,26.1667 8.5,27.5C 10.4458,27.1928 12.1125,27.1928 13.5,27.5C 11.604,28.4656 9.60395,28.7989 7.5,28.5C 7.5,22.1667 7.5,15.8333 7.5,9.5 Z"/></g>
</svg>
