<?xml version="1.0" encoding="UTF-8"?>
<!DOCTYPE svg PUBLIC "-//W3C//DTD SVG 1.1//EN" "http://www.w3.org/Graphics/SVG/1.1/DTD/svg11.dtd">
<svg xmlns="http://www.w3.org/2000/svg" version="1.1" width="50px" height="50px" style="shape-rendering:geometricPrecision; text-rendering:geometricPrecision; image-rendering:optimizeQuality; fill-rule:evenodd; clip-rule:evenodd" xmlns:xlink="http://www.w3.org/1999/xlink">
<g><path style="opacity:0.655" fill="#f2c621" d="M 33.5,20.5 C 32.8333,20.5 32.5,20.8333 32.5,21.5C 27.7021,25.7967 23.0355,30.2967 18.5,35C 16.9262,35.6987 15.5929,35.3654 14.5,34C 21.3333,27.1667 28.1667,20.3333 35,13.5C 34.76,11.5335 33.9266,9.70015 32.5,8C 32.9054,7.05456 33.572,6.38789 34.5,6C 37.7603,5.21649 40.9269,5.38316 44,6.5C 44.4986,10.1516 44.6653,13.8183 44.5,17.5C 42.1727,17.7529 40.1727,17.0863 38.5,15.5C 36.4788,16.8545 34.8121,18.5212 33.5,20.5 Z M 36.5,9.5 C 37.9187,8.54885 39.5853,8.21552 41.5,8.5C 41.6602,10.1992 41.4935,11.8659 41,13.5C 39.6288,11.9586 38.1288,10.6253 36.5,9.5 Z"/></g>
<g><path style="opacity:0.582" fill="#f5cd48" d="M 32.5,21.5 C 33.1667,21.5 33.5,21.1667 33.5,20.5C 34.4959,20.4142 35.3292,20.7476 36,21.5C 36.1667,24.3333 36.3333,27.1667 36.5,30C 36.7093,34.0369 36.0427,37.8703 34.5,41.5C 25.2145,42.6396 15.8812,42.8063 6.5,42C 5.33333,41.5 4.5,40.6667 4,39.5C 3.33333,30.5 3.33333,21.5 4,12.5C 4.5,12 5,11.5 5.5,11C 9.83333,10.8333 14.1667,10.6667 18.5,10.5C 23.3399,10.3585 28.0065,10.8585 32.5,12C 24.3374,13.4672 16.0041,13.9672 7.5,13.5C 7.18344,22.0851 7.51677,30.5851 8.5,39C 16.2035,39.4281 23.7035,39.5948 31,39.5C 32.4526,33.6828 32.9526,27.6828 32.5,21.5 Z"/></g>
</svg>
