<?xml version="1.0" encoding="UTF-8"?>
<!DOCTYPE svg PUBLIC "-//W3C//DTD SVG 1.1//EN" "http://www.w3.org/Graphics/SVG/1.1/DTD/svg11.dtd">
<svg xmlns="http://www.w3.org/2000/svg" version="1.1" width="50px" height="50px" style="shape-rendering:geometricPrecision; text-rendering:geometricPrecision; image-rendering:optimizeQuality; fill-rule:evenodd; clip-rule:evenodd" xmlns:xlink="http://www.w3.org/1999/xlink">
<g><path style="opacity:0.664" fill="#ff2714" d="M 20.5,3.5 C 38.5098,3.67497 46.3431,12.675 44,30.5C 37.0334,44.3778 26.5334,47.8778 12.5,41C 0.920953,30.3469 0.587619,19.3469 11.5,8C 14.5919,6.45406 17.5919,4.95406 20.5,3.5 Z M 19.5,7.5 C 35.6068,7.09588 42.4401,14.7626 40,30.5C 35.455,39.2483 28.2883,42.415 18.5,40C 9.14565,35.1236 5.97899,27.6236 9,17.5C 11.0808,12.5837 14.5808,9.25039 19.5,7.5 Z"/></g>
<g><path style="opacity:0.649" fill="#fe0a00" d="M 17.5,15.5 C 19.7966,17.2941 21.9633,19.2941 24,21.5C 25.8333,19.6667 27.6667,17.8333 29.5,16C 32.0915,15.6992 32.9248,16.8659 32,19.5C 30.5,21 29,22.5 27.5,24C 29,25.5 30.5,27 32,28.5C 32.9248,31.1341 32.0915,32.3008 29.5,32C 27.9825,30.3149 26.3159,28.8149 24.5,27.5C 22.6841,28.8149 21.0175,30.3149 19.5,32C 16.8659,32.9248 15.6992,32.0915 16,29.5C 17.8333,27.6667 19.6667,25.8333 21.5,24C 19.5,22 17.5,20 15.5,18C 16.3805,17.2917 17.0472,16.4584 17.5,15.5 Z"/></g>
</svg>
