<?xml version="1.0" encoding="UTF-8"?>
<!DOCTYPE svg PUBLIC "-//W3C//DTD SVG 1.1//EN" "http://www.w3.org/Graphics/SVG/1.1/DTD/svg11.dtd">
<svg xmlns="http://www.w3.org/2000/svg" version="1.1" width="50px" height="50px" style="shape-rendering:geometricPrecision; text-rendering:geometricPrecision; image-rendering:optimizeQuality; fill-rule:evenodd; clip-rule:evenodd" xmlns:xlink="http://www.w3.org/1999/xlink">
<g><path style="opacity:0.647" fill="#818e8f" d="M 41.5,10.5 C 42.1495,12.4352 42.4828,14.4352 42.5,16.5C 37.1106,24.0667 31.1106,31.2334 24.5,38C 22.9651,38.4962 21.4651,38.3295 20,37.5C 17.2775,39.6939 14.2775,41.3606 11,42.5C 8.88858,42.2994 7.05525,41.6327 5.5,40.5C 5.83333,39.8333 6.16667,39.1667 6.5,38.5C 8.40809,35.6304 10.4081,32.7971 12.5,30C 11.4238,28.2739 11.2571,26.4406 12,24.5C 19.6886,17.9771 27.5219,11.6438 35.5,5.5C 38.1292,6.46669 40.1292,8.13336 41.5,10.5 Z M 34.5,9.5 C 37.0692,10.3956 39.0692,12.0623 40.5,14.5C 36.5401,19.7954 32.2068,24.7954 27.5,29.5C 24.8333,27.5 22.5,25.1667 20.5,22.5C 25.1869,18.1449 29.8536,13.8115 34.5,9.5 Z M 16.5,24.5 C 19.3347,27.1653 22.3347,29.6653 25.5,32C 23.9448,34.4654 21.9448,34.9654 19.5,33.5C 18.1861,34.3128 17.0195,35.3128 16,36.5C 15.1667,35.6667 14.3333,34.8333 13.5,34C 15.6483,31.9251 15.9817,29.5918 14.5,27C 15.3805,26.2917 16.0472,25.4584 16.5,24.5 Z M 10.5,37.5 C 13.0009,37.5109 13.1676,38.1776 11,39.5C 10.5357,38.9056 10.369,38.2389 10.5,37.5 Z"/></g>
<g><path style="opacity:0.475" fill="#acb4b5" d="M 41.5,10.5 C 42.9468,11.1342 43.6134,12.3009 43.5,14C 43.472,15.0698 43.1386,15.9032 42.5,16.5C 42.4828,14.4352 42.1495,12.4352 41.5,10.5 Z"/></g>
<g><path style="opacity:0.082" fill="#dcdfdf" d="M 6.5,38.5 C 6.16667,39.1667 5.83333,39.8333 5.5,40.5C 4.24258,39.3774 4.57591,38.7107 6.5,38.5 Z"/></g>
</svg>
