<?xml version="1.0" encoding="UTF-8"?>
<!DOCTYPE svg PUBLIC "-//W3C//DTD SVG 1.1//EN" "http://www.w3.org/Graphics/SVG/1.1/DTD/svg11.dtd">
<svg xmlns="http://www.w3.org/2000/svg" version="1.1" width="50px" height="50px" style="shape-rendering:geometricPrecision; text-rendering:geometricPrecision; image-rendering:optimizeQuality; fill-rule:evenodd; clip-rule:evenodd" xmlns:xlink="http://www.w3.org/1999/xlink">
<g><path style="opacity:0.939" fill="#d085e1" d="M 43.5,10.5 C 42.507,18.9839 42.1736,27.6506 42.5,36.5C 30.5,36.5 18.5,36.5 6.5,36.5C 6.6664,28.16 6.49973,19.8267 6,11.5C 5.50025,20.1603 5.33358,28.8269 5.5,37.5C 4.34269,28.6762 4.17602,19.6762 5,10.5C 5.5,10 6,9.5 6.5,9C 18.5,8.33333 30.5,8.33333 42.5,9C 43.056,9.38258 43.3893,9.88258 43.5,10.5 Z M 7.5,12.5 C 18.8333,12.5 30.1667,12.5 41.5,12.5C 41.5,20.1667 41.5,27.8333 41.5,35.5C 30.1667,35.5 18.8333,35.5 7.5,35.5C 7.5,27.8333 7.5,20.1667 7.5,12.5 Z M 30.5,24.5 C 31.5,24.5 32.5,24.5 33.5,24.5C 33.5569,25.609 33.8902,26.609 34.5,27.5C 33.2921,28.2341 31.9587,28.5674 30.5,28.5C 30.5,27.1667 30.5,25.8333 30.5,24.5 Z"/></g>
<g><path style="opacity:0.872" fill="#ca6de2" d="M 43.5,10.5 C 44.1174,10.6107 44.6174,10.944 45,11.5C 45.6667,19.8333 45.6667,28.1667 45,36.5C 44.6924,37.3081 44.1924,37.9747 43.5,38.5C 31.2125,39.6464 18.8792,39.8131 6.5,39C 5.94404,38.6174 5.61071,38.1174 5.5,37.5C 5.33358,28.8269 5.50025,20.1603 6,11.5C 6.49973,19.8267 6.6664,28.16 6.5,36.5C 18.5,36.5 30.5,36.5 42.5,36.5C 42.1736,27.6506 42.507,18.9839 43.5,10.5 Z M 7.5,12.5 C 7.5,20.1667 7.5,27.8333 7.5,35.5C 18.8333,35.5 30.1667,35.5 41.5,35.5C 41.5,27.8333 41.5,20.1667 41.5,12.5C 30.1667,12.5 18.8333,12.5 7.5,12.5 Z M 30.5,24.5 C 31.5,24.5 32.5,24.5 33.5,24.5C 33.5569,25.609 33.8902,26.609 34.5,27.5C 33.2921,28.2341 31.9587,28.5674 30.5,28.5C 30.5,27.1667 30.5,25.8333 30.5,24.5 Z"/></g>
<g><path style="opacity:0.878" fill="#cf77e4" d="M 34.5,27.5 C 35.2341,28.7079 35.5674,30.0413 35.5,31.5C 32.423,32.7002 29.7563,32.0336 27.5,29.5C 29.7819,30.3897 32.1152,30.5564 34.5,30C 32.9419,29.79 31.6085,29.29 30.5,28.5C 31.9587,28.5674 33.2921,28.2341 34.5,27.5 Z"/></g>
<g><path style="opacity:0.702" fill="#db9fe8" d="M 12.5,27.5 C 12.2322,29.099 12.5655,30.4324 13.5,31.5C 12.5029,32.7125 11.5029,32.5458 10.5,31C 11.0848,29.6976 11.7515,28.531 12.5,27.5 Z"/></g>
<g><path style="opacity:0.953" fill="#d589e6" d="M 23.5,25.5 C 24.5375,26.9303 25.2041,28.597 25.5,30.5C 23.7868,29.3646 23.1201,27.698 23.5,25.5 Z"/></g>
<g><path style="opacity:1" fill="#c051dc" d="M 14.5,30.5 C 14.5,31.1667 14.1667,31.5 13.5,31.5C 12.5655,30.4324 12.2322,29.099 12.5,27.5C 13.1174,27.3893 13.6174,27.056 14,26.5C 14.49,27.7932 14.6567,29.1266 14.5,30.5 Z"/></g>
<g><path style="opacity:1" fill="#c867e0" d="M 30.5,24.5 C 30.5,25.8333 30.5,27.1667 30.5,28.5C 31.6085,29.29 32.9419,29.79 34.5,30C 32.1152,30.5564 29.7819,30.3897 27.5,29.5C 26.2801,27.7163 26.2801,26.0496 27.5,24.5C 28.6522,23.375 29.6522,23.375 30.5,24.5 Z"/></g>
<g><path style="opacity:0.982" fill="#de9eec" d="M 14.5,22.5 C 14.33,23.8221 14.6634,24.9887 15.5,26C 17.7078,26.1909 19.7078,26.6909 21.5,27.5C 19.5,27.5 17.5,27.5 15.5,27.5C 15.7373,28.791 15.404,29.791 14.5,30.5C 14.6567,29.1266 14.49,27.7932 14,26.5C 13.6174,27.056 13.1174,27.3893 12.5,27.5C 12.7959,25.597 13.4625,23.9303 14.5,22.5 Z"/></g>
<g><path style="opacity:1" fill="#c052dd" d="M 36.5,31.5 C 36.1667,32.8333 35.8333,32.8333 35.5,31.5C 35.5674,30.0413 35.2341,28.7079 34.5,27.5C 33.8902,26.609 33.5569,25.609 33.5,24.5C 33.0825,23.7784 32.4158,23.2784 31.5,23C 32.7932,22.51 34.1266,22.3433 35.5,22.5C 35.3398,20.8008 35.5065,19.1341 36,17.5C 36.4992,22.1548 36.6658,26.8215 36.5,31.5 Z"/></g>
<g><path style="opacity:1" fill="#cd77e2" d="M 36.5,31.5 C 36.6658,26.8215 36.4992,22.1548 36,17.5C 35.5065,19.1341 35.3398,20.8008 35.5,22.5C 34.1266,22.3433 32.7932,22.51 31.5,23C 32.4158,23.2784 33.0825,23.7784 33.5,24.5C 32.5,24.5 31.5,24.5 30.5,24.5C 29.6522,23.375 28.6522,23.375 27.5,24.5C 27.5774,23.2502 28.244,22.4169 29.5,22C 31.1341,21.5065 32.8008,21.3398 34.5,21.5C 34.5,19.8333 34.5,18.1667 34.5,16.5C 35.5,16.5 36.5,16.5 37.5,16.5C 37.8205,21.6946 37.4872,26.6946 36.5,31.5 Z"/></g>
<g><path style="opacity:1" fill="#c55edf" d="M 16.5,17.5 C 18.5138,17.3915 20.1805,18.0582 21.5,19.5C 22.3627,21.4214 23.0293,23.4214 23.5,25.5C 23.1201,27.698 23.7868,29.3646 25.5,30.5C 25.4827,32.0281 24.816,32.5281 23.5,32C 21.9632,30.8904 21.2965,29.3904 21.5,27.5C 19.7078,26.6909 17.7078,26.1909 15.5,26C 14.6634,24.9887 14.33,23.8221 14.5,22.5C 14.7959,20.597 15.4625,18.9303 16.5,17.5 Z"/></g>
<g><path style="opacity:0.137" fill="#ebc6f3" d="M 19.5,22.5 C 18.8333,22.5 18.1667,22.5 17.5,22.5C 18.1667,19.8333 18.8333,19.8333 19.5,22.5 Z"/></g>
<g><path style="opacity:0.78" fill="#d286e5" d="M 16.5,17.5 C 17.6009,16.4017 18.9343,16.235 20.5,17C 21.2524,17.6708 21.5858,18.5041 21.5,19.5C 20.1805,18.0582 18.5138,17.3915 16.5,17.5 Z"/></g>
</svg>
