<?xml version="1.0" encoding="UTF-8"?>
<!DOCTYPE svg PUBLIC "-//W3C//DTD SVG 1.1//EN" "http://www.w3.org/Graphics/SVG/1.1/DTD/svg11.dtd">
<svg xmlns="http://www.w3.org/2000/svg" version="1.1" width="50px" height="50px" style="shape-rendering:geometricPrecision; text-rendering:geometricPrecision; image-rendering:optimizeQuality; fill-rule:evenodd; clip-rule:evenodd" xmlns:xlink="http://www.w3.org/1999/xlink">
<g><path style="opacity:0.624" fill="#c54636" d="M 8.5,5.5 C 12.5,5.5 16.5,5.5 20.5,5.5C 20.6162,8.91032 18.9496,10.2436 15.5,9.5C 15.3339,15.1764 15.5006,20.8431 16,26.5C 18.9318,32.544 23.4318,34.044 29.5,31C 30.7014,30.0975 31.5348,28.9308 32,27.5C 32.4995,21.5092 32.6662,15.5092 32.5,9.5C 29.5,9.83333 28.1667,8.5 28.5,5.5C 32.5,5.5 36.5,5.5 40.5,5.5C 40.8333,8.5 39.5,9.83333 36.5,9.5C 36.8774,16.2569 36.3774,22.9236 35,29.5C 27.3239,39.0687 19.9905,38.7353 13,28.5C 12.5005,22.1754 12.3338,15.8421 12.5,9.5C 8.55995,10.234 7.22662,8.90066 8.5,5.5 Z"/></g>
<g><path style="opacity:0.723" fill="#cf6558" d="M 8.5,39.5 C 13.2876,40.8279 18.4543,41.4946 24,41.5C 29.5457,41.4946 34.7124,40.8279 39.5,39.5C 40.404,40.209 40.7373,41.209 40.5,42.5C 29.5,42.5 18.5,42.5 7.5,42.5C 7.26269,41.209 7.59603,40.209 8.5,39.5 Z"/></g>
<g><path style="opacity:1" fill="#bf3526" d="M 8.5,39.5 C 18.8333,39.5 29.1667,39.5 39.5,39.5C 34.7124,40.8279 29.5457,41.4946 24,41.5C 18.4543,41.4946 13.2876,40.8279 8.5,39.5 Z"/></g>
</svg>
