<?xml version="1.0" encoding="UTF-8"?>
<!DOCTYPE svg PUBLIC "-//W3C//DTD SVG 1.1//EN" "http://www.w3.org/Graphics/SVG/1.1/DTD/svg11.dtd">
<svg xmlns="http://www.w3.org/2000/svg" version="1.1" width="50px" height="50px" style="shape-rendering:geometricPrecision; text-rendering:geometricPrecision; image-rendering:optimizeQuality; fill-rule:evenodd; clip-rule:evenodd" xmlns:xlink="http://www.w3.org/1999/xlink">
<g><path style="opacity:0.63" fill="#39ce36" d="M 27.5,3.5 C 34.45,4.72708 36.7833,8.72708 34.5,15.5C 38.0832,15.9491 41.2498,17.2824 44,19.5C 44.2895,27.4289 42.9562,35.0955 40,42.5C 32.5722,45.289 25.2389,44.9557 18,41.5C 17.6258,42.4162 17.1258,43.2496 16.5,44C 12.4589,44.8265 8.45894,44.6599 4.5,43.5C 3.16667,35.8333 3.16667,28.1667 4.5,20.5C 5.02527,19.8076 5.69194,19.3076 6.5,19C 10.2411,18.4979 13.9078,18.4979 17.5,19C 22.0087,14.4555 25.3421,9.28881 27.5,3.5 Z M 28.5,7.5 C 30.8896,7.68485 31.8896,9.01818 31.5,11.5C 30.5302,14.4373 29.8635,17.4373 29.5,20.5C 33.4367,20.2065 37.27,20.5399 41,21.5C 41.624,23.4645 41.124,25.1311 39.5,26.5C 39.9312,27.2935 40.2645,28.1268 40.5,29C 39.3907,32.9311 38.0573,36.7645 36.5,40.5C 35.0615,41.0634 33.5615,41.3968 32,41.5C 27.064,40.8131 22.2306,39.8131 17.5,38.5C 17.3341,33.4889 17.5007,28.4889 18,23.5C 22.974,19.0464 26.474,13.7131 28.5,7.5 Z M 7.5,22.5 C 9.5,22.5 11.5,22.5 13.5,22.5C 13.6659,27.5111 13.4993,32.5111 13,37.5C 9.38565,34.7777 8.21898,35.6111 9.5,40C 11.0846,40.0848 12.4179,40.2514 13.5,40.5C 11.604,41.4656 9.60395,41.7989 7.5,41.5C 7.5,35.1667 7.5,28.8333 7.5,22.5 Z"/></g>
</svg>
