<?xml version="1.0" encoding="UTF-8"?>
<!DOCTYPE svg PUBLIC "-//W3C//DTD SVG 1.1//EN" "http://www.w3.org/Graphics/SVG/1.1/DTD/svg11.dtd">
<svg xmlns="http://www.w3.org/2000/svg" version="1.1" width="50px" height="50px" style="shape-rendering:geometricPrecision; text-rendering:geometricPrecision; image-rendering:optimizeQuality; fill-rule:evenodd; clip-rule:evenodd" xmlns:xlink="http://www.w3.org/1999/xlink">
<g><path style="opacity:0.671" fill="#47596c" d="M 13.5,6.5 C 20.4933,4.99587 23.3267,7.66253 22,14.5C 20.0551,15.8633 17.8884,16.6966 15.5,17C 13.9632,18.1096 13.2965,19.6096 13.5,21.5C 21.7456,20.2465 25.0789,23.7465 23.5,32C 24.0405,35.9177 23.0405,39.251 20.5,42C 16.1667,42.6667 11.8333,42.6667 7.5,42C 5.66667,41.5 4.5,40.3333 4,38.5C 3.13667,30.4357 3.47,22.4357 5,14.5C 7.07383,10.9231 9.90716,8.25648 13.5,6.5 Z M 17.5,9.5 C 18.404,10.209 18.7373,11.209 18.5,12.5C 11.5181,13.4995 8.85139,17.4995 10.5,24.5C 14.0071,23.9935 17.1737,24.6602 20,26.5C 20.6667,30.1667 20.6667,33.8333 20,37.5C 15.9341,38.4637 11.7675,38.797 7.5,38.5C 7.33368,31.1591 7.50034,23.8258 8,16.5C 10.0863,12.5547 13.253,10.2213 17.5,9.5 Z"/></g>
<g><path style="opacity:0.685" fill="#3a4e63" d="M 34.5,6.5 C 41.4933,4.99587 44.3267,7.66253 43,14.5C 41.1741,16.0738 39.0075,16.9071 36.5,17C 35.7069,18.0852 35.0402,19.2519 34.5,20.5C 37.8369,21.0894 41.0035,22.0894 44,23.5C 44.6667,28.8333 44.6667,34.1667 44,39.5C 43.1667,40.3333 42.3333,41.1667 41.5,42C 37.1667,42.6667 32.8333,42.6667 28.5,42C 27.3333,41.5 26.5,40.6667 26,39.5C 25.3333,31.1667 25.3333,22.8333 26,14.5C 28.0738,10.9231 30.9072,8.25648 34.5,6.5 Z M 38.5,9.5 C 39.4778,9.81103 40.1445,10.4777 40.5,11.5C 33.1398,12.8546 30.1398,17.1879 31.5,24.5C 34.5788,24.2601 37.5788,24.5934 40.5,25.5C 41.6599,29.4589 41.8265,33.4589 41,37.5C 36.9341,38.4637 32.7675,38.797 28.5,38.5C 28.0989,30.4148 28.5989,22.4148 30,14.5C 32.3978,11.8916 35.2312,10.2249 38.5,9.5 Z"/></g>
</svg>
