<?xml version="1.0" encoding="UTF-8"?>
<!DOCTYPE svg PUBLIC "-//W3C//DTD SVG 1.1//EN" "http://www.w3.org/Graphics/SVG/1.1/DTD/svg11.dtd">
<svg xmlns="http://www.w3.org/2000/svg" version="1.1" width="50px" height="50px" style="shape-rendering:geometricPrecision; text-rendering:geometricPrecision; image-rendering:optimizeQuality; fill-rule:evenodd; clip-rule:evenodd" xmlns:xlink="http://www.w3.org/1999/xlink">
<g><path style="opacity:0.386" fill="#2c2c2c" d="M 42.5,5.5 C 42.5,6.16667 42.1667,6.5 41.5,6.5C 36.1667,6.83333 36.1667,7.16667 41.5,7.5C 41.5,7.83333 41.5,8.16667 41.5,8.5C 41.1583,9.33825 40.4916,9.67158 39.5,9.5C 38.1667,9.83333 38.1667,10.1667 39.5,10.5C 39.8333,10.5 40.1667,10.5 40.5,10.5C 40.5,10.8333 40.5,11.1667 40.5,11.5C 39.8333,11.5 39.5,11.8333 39.5,12.5C 39.5,12.8333 39.5,13.1667 39.5,13.5C 39.5,13.8333 39.5,14.1667 39.5,14.5C 38.1667,14.8333 38.1667,15.1667 39.5,15.5C 40.2389,15.369 40.9056,15.5357 41.5,16C 39.8934,17.049 39.2267,18.549 39.5,20.5C 38.1667,20.8333 38.1667,21.1667 39.5,21.5C 39.5,22.1667 39.8333,22.5 40.5,22.5C 40.5,24.5 40.5,26.5 40.5,28.5C 40.5,28.8333 40.5,29.1667 40.5,29.5C 39.596,30.209 39.2627,31.209 39.5,32.5C 38.1667,32.8333 38.1667,33.1667 39.5,33.5C 39.8333,34.1667 40.1667,34.8333 40.5,35.5C 39.5041,35.5858 38.6708,35.2524 38,34.5C 36.4571,36.3783 34.6238,37.8783 32.5,39C 33.4162,39.3742 34.2496,39.8742 35,40.5C 36.3712,38.9586 37.8712,37.6253 39.5,36.5C 39.5,37.1667 39.5,37.8333 39.5,38.5C 38.1667,39.1667 38.1667,39.8333 39.5,40.5C 39.6107,41.1174 39.944,41.6174 40.5,42C 38.1902,42.4966 35.8568,42.6633 33.5,42.5C 33.1667,41.1667 32.8333,41.1667 32.5,42.5C 30.5,42.5 28.5,42.5 26.5,42.5C 23.8473,43.159 20.514,43.159 16.5,42.5C 12.5874,42.8132 8.92071,42.1466 5.5,40.5C 5.5,40.1667 5.5,39.8333 5.5,39.5C 6.23891,39.631 6.90558,39.4643 7.5,39C 6.22641,38.0228 6.22641,37.1894 7.5,36.5C 8.55198,36.3505 9.55198,36.5172 10.5,37C 11.9446,40.0808 13.9446,40.7475 16.5,39C 14.3762,37.8783 12.5429,36.3783 11,34.5C 9.98873,35.3366 8.82207,35.67 7.5,35.5C 7.5,34.1667 7.5,32.8333 7.5,31.5C 8.09647,30.0646 8.09647,28.398 7.5,26.5C 7.5,24.8333 7.5,23.1667 7.5,21.5C 7.5,21.1667 7.5,20.8333 7.5,20.5C 7.5,18.1667 7.5,15.8333 7.5,13.5C 8.83333,13.1667 8.83333,12.8333 7.5,12.5C 7.5,11.1667 7.5,9.83333 7.5,8.5C 7.5,8.16667 7.5,7.83333 7.5,7.5C 8.79105,7.73731 9.79105,7.40397 10.5,6.5C 12.8333,6.5 15.1667,6.5 17.5,6.5C 21.6706,5.2907 25.8373,5.2907 30,6.5C 34.0674,4.3856 38.234,4.05227 42.5,5.5 Z M 28.5,17.5 C 29.7196,19.6064 31.7196,21.7731 34.5,24C 31.318,27.3493 27.9846,30.516 24.5,33.5C 21.0154,30.516 17.682,27.3493 14.5,24C 17.5613,20.6937 20.7279,17.527 24,14.5C 25.129,16.1412 26.629,17.1412 28.5,17.5 Z M 28.5,15.5 C 30.9327,15.7856 30.9327,16.4523 28.5,17.5C 28.5,16.8333 28.5,16.1667 28.5,15.5 Z M 15.5,20.5 C 15.4614,19.2438 15.9614,18.2438 17,17.5C 17.5847,18.9976 17.0847,19.9976 15.5,20.5 Z M 33.5,20.5 C 31.9153,19.9976 31.4153,18.9976 32,17.5C 33.0386,18.2438 33.5386,19.2438 33.5,20.5 Z M 27.5,22.5 C 25.9087,23.2189 24.4087,24.2189 23,25.5C 22.486,21.6682 23.986,20.6682 27.5,22.5 Z M 15.5,28.5 C 17.1667,29.5 18.5,30.8333 19.5,32.5C 17.1667,32.1667 15.8333,30.8333 15.5,28.5 Z"/></g>
<g><path style="opacity:0.501" fill="#858585" d="M 17.5,6.5 C 15.1667,6.5 12.8333,6.5 10.5,6.5C 9.20895,6.26269 8.20895,6.59603 7.5,7.5C 6.16667,7.83333 6.16667,8.16667 7.5,8.5C 7.5,9.83333 7.5,11.1667 7.5,12.5C 7.5,12.8333 7.5,13.1667 7.5,13.5C 7.5,15.8333 7.5,18.1667 7.5,20.5C 6.16667,20.8333 6.16667,21.1667 7.5,21.5C 7.5,23.1667 7.5,24.8333 7.5,26.5C 5.73482,23.456 4.73482,19.956 4.5,16C 5.21809,12.5395 5.71809,9.03949 6,5.5C 10.0577,4.07202 13.891,4.40535 17.5,6.5 Z"/></g>
<g><path style="opacity:0.443" fill="#787878" d="M 42.5,5.5 C 43.7943,9.73274 43.7943,14.0661 42.5,18.5C 40.8235,19.1834 40.1568,20.5168 40.5,22.5C 39.8333,22.5 39.5,22.1667 39.5,21.5C 39.5,21.1667 39.5,20.8333 39.5,20.5C 39.2267,18.549 39.8934,17.049 41.5,16C 40.9056,15.5357 40.2389,15.369 39.5,15.5C 39.5,15.1667 39.5,14.8333 39.5,14.5C 39.5,14.1667 39.5,13.8333 39.5,13.5C 42.1667,13.1667 42.1667,12.8333 39.5,12.5C 39.5,11.8333 39.8333,11.5 40.5,11.5C 41.8333,11.1667 41.8333,10.8333 40.5,10.5C 40.1667,10.5 39.8333,10.5 39.5,10.5C 39.5,10.1667 39.5,9.83333 39.5,9.5C 40.4916,9.67158 41.1583,9.33825 41.5,8.5C 42.8333,8.16667 42.8333,7.83333 41.5,7.5C 41.5,7.16667 41.5,6.83333 41.5,6.5C 42.1667,6.5 42.5,6.16667 42.5,5.5 Z"/></g>
<g><path style="opacity:0.302" fill="#282928" d="M 27.5,22.5 C 28.3764,22.3691 29.0431,22.7025 29.5,23.5C 28.1845,24.8066 27.1845,26.3066 26.5,28C 20.4106,28.1921 19.0773,25.6921 22.5,20.5C 24.9414,19.2205 26.6081,19.8872 27.5,22.5 Z M 27.5,22.5 C 23.986,20.6682 22.486,21.6682 23,25.5C 24.4087,24.2189 25.9087,23.2189 27.5,22.5 Z"/></g>
<g><path style="opacity:0.398" fill="#6b6b6b" d="M 43.5,19.5 C 43.8016,22.0593 43.4682,24.3926 42.5,26.5C 42.7564,24.2075 42.4231,22.0408 41.5,20C 42.0944,19.5357 42.7611,19.369 43.5,19.5 Z"/></g>
<g><path style="opacity:0.188" fill="#b3b3b3" d="M 42.5,18.5 C 43.1667,18.5 43.5,18.8333 43.5,19.5C 42.7611,19.369 42.0944,19.5357 41.5,20C 42.4231,22.0408 42.7564,24.2075 42.5,26.5C 41.8333,27.1667 41.1667,27.8333 40.5,28.5C 40.5,26.5 40.5,24.5 40.5,22.5C 40.1568,20.5168 40.8235,19.1834 42.5,18.5 Z"/></g>
<g><path style="opacity:0.204" fill="#9c9c9c" d="M 7.5,31.5 C 7.5,32.8333 7.5,34.1667 7.5,35.5C 7.5,35.8333 7.5,36.1667 7.5,36.5C 6.22641,37.1894 6.22641,38.0228 7.5,39C 6.90558,39.4643 6.23891,39.631 5.5,39.5C 4.96438,36.3019 5.63105,33.6353 7.5,31.5 Z"/></g>
<g><path style="opacity:0.435" fill="#959595" d="M 40.5,29.5 C 40.8212,31.0481 41.8212,31.7148 43.5,31.5C 42.6341,35.6007 42.6341,39.6007 43.5,43.5C 37.642,43.8222 31.9753,43.4889 26.5,42.5C 28.5,42.5 30.5,42.5 32.5,42.5C 32.8333,42.5 33.1667,42.5 33.5,42.5C 35.8568,42.6633 38.1902,42.4966 40.5,42C 39.944,41.6174 39.6107,41.1174 39.5,40.5C 39.5,39.8333 39.5,39.1667 39.5,38.5C 39.5,37.8333 39.5,37.1667 39.5,36.5C 41.2239,36.5393 41.5573,36.206 40.5,35.5C 40.1667,34.8333 39.8333,34.1667 39.5,33.5C 39.5,33.1667 39.5,32.8333 39.5,32.5C 39.2627,31.209 39.596,30.209 40.5,29.5 Z"/></g>
<g><path style="opacity:0.187" fill="#b2b2b2" d="M 5.5,40.5 C 8.92071,42.1466 12.5874,42.8132 16.5,42.5C 13.0381,43.4816 9.37141,43.815 5.5,43.5C 5.5,42.5 5.5,41.5 5.5,40.5 Z"/></g>
</svg>
