<?xml version="1.0" encoding="UTF-8"?>
<!DOCTYPE svg PUBLIC "-//W3C//DTD SVG 1.1//EN" "http://www.w3.org/Graphics/SVG/1.1/DTD/svg11.dtd">
<svg xmlns="http://www.w3.org/2000/svg" version="1.1" width="50px" height="50px" style="shape-rendering:geometricPrecision; text-rendering:geometricPrecision; image-rendering:optimizeQuality; fill-rule:evenodd; clip-rule:evenodd" xmlns:xlink="http://www.w3.org/1999/xlink">
<g><path style="opacity:0.624" fill="#292929" d="M 22.5,5.5 C 23.552,5.35055 24.552,5.51722 25.5,6C 30.6983,11.533 36.1983,16.6996 42,21.5C 43.4936,20.2528 44.9936,20.2528 46.5,21.5C 39.5,29.1667 32.1667,36.5 24.5,43.5C 18.4834,37.6492 12.3167,31.9825 6,26.5C 4.4203,29.2545 3.25363,29.0878 2.5,26C 9.30207,19.3638 15.9687,12.5304 22.5,5.5 Z M 23.5,9.5 C 29.2416,13.7347 34.5749,18.568 39.5,24C 34.6228,29.2128 29.4562,34.0461 24,38.5C 18.5438,34.0461 13.3772,29.2128 8.5,24C 13.3953,18.936 18.3953,14.1026 23.5,9.5 Z"/></g>
<g><path style="opacity:0.485" fill="#282928" d="M 19.5,17.5 C 22.8984,17.1796 26.2317,17.513 29.5,18.5C 29.2907,19.086 28.9574,19.586 28.5,20C 25.8333,20.6667 23.1667,20.6667 20.5,20C 19.7476,19.3292 19.4142,18.4959 19.5,17.5 Z"/></g>
<g><path style="opacity:0.521" fill="#282928" d="M 16.5,21.5 C 21.8746,21.1718 27.2079,21.5052 32.5,22.5C 31.9747,23.1924 31.3081,23.6924 30.5,24C 26.1667,24.6667 21.8333,24.6667 17.5,24C 16.7476,23.3292 16.4142,22.4959 16.5,21.5 Z"/></g>
<g><path style="opacity:0.512" fill="#282928" d="M 16.5,25.5 C 21.8746,25.1718 27.2079,25.5052 32.5,26.5C 31.9747,27.1924 31.3081,27.6924 30.5,28C 26.1667,28.6667 21.8333,28.6667 17.5,28C 16.7476,27.3292 16.4142,26.4959 16.5,25.5 Z"/></g>
<g><path style="opacity:0.661" fill="#282928" d="M 19.5,29.5 C 22.8984,29.1796 26.2317,29.513 29.5,30.5C 27.8333,30.8333 26.1667,31.1667 24.5,31.5C 22.3603,31.4439 20.6936,30.7773 19.5,29.5 Z"/></g>
</svg>
